<svg xmlns="http://www.w3.org/2000/svg" class="ionicon" viewBox="0 0 512 512">
    <symbol id='icon-logo-nodejs' viewBox="0 0 50 50">
        <path d="M 15.994141 3 C 15.629141 3 15.264219 3.0895313 14.949219 3.2695312 L 5.0390625 8.9902344 C 4.3990625 9.3602344 4 10.060781 4 10.800781 L 4 21.179688 C 4 21.929688 4.3990625 22.620234 5.0390625 22.990234 L 7.640625 24.490234 C 8.900625 25.110234 9.3499219 25.109375 9.9199219 25.109375 C 11.789922 25.109375 12.859375 23.979531 12.859375 22.019531 L 12.859375 11.310547 C 12.859375 11.150547 12.730312 11.019531 12.570312 11.019531 L 11.320312 11.019531 C 11.150313 11.019531 11.029297 11.150547 11.029297 11.310547 L 11.029297 22.009766 C 11.029297 22.889766 10.120391 23.749531 8.6503906 23.019531 L 5.9296875 21.449219 C 5.8296875 21.399219 5.7695313 21.289687 5.7695312 21.179688 L 5.7695312 10.810547 C 5.7695312 10.690547 5.8296875 10.589297 5.9296875 10.529297 L 15.839844 4.8105469 C 15.929844 4.7505469 16.050391 4.7505469 16.150391 4.8105469 L 26.060547 10.529297 C 26.160547 10.589297 26.220703 10.690781 26.220703 10.800781 L 26.220703 21.179688 C 26.220703 21.289687 26.160313 21.399219 26.070312 21.449219 L 16.150391 27.179688 C 16.060391 27.229688 15.929844 27.229688 15.839844 27.179688 L 13.289062 25.669922 C 13.219062 25.619922 13.120781 25.610391 13.050781 25.650391 C 12.340781 26.050391 12.210781 26.100078 11.550781 26.330078 C 11.390781 26.380078 11.140625 26.479766 11.640625 26.759766 L 14.949219 28.720703 C 15.269219 28.900703 15.630234 29 15.990234 29 C 16.360234 29 16.719062 28.900703 17.039062 28.720703 L 26.960938 22.990234 C 27.600938 22.620234 28 21.929688 28 21.179688 L 28 10.810547 C 28 10.060547 27.600938 9.37 26.960938 9 L 17.039062 3.2695312 C 16.724063 3.0895313 16.359141 3 15.994141 3 z M 18.660156 11.005859 C 15.830156 11.005859 14.140625 12.205078 14.140625 14.205078 C 14.140625 16.375078 15.819062 16.974141 18.539062 17.244141 C 21.789062 17.564141 22.039062 18.045547 22.039062 18.685547 C 22.039062 19.785547 21.150547 20.255859 19.060547 20.255859 C 16.430547 20.255859 15.850156 19.594922 15.660156 18.294922 C 15.640156 18.154922 15.520859 18.054688 15.380859 18.054688 L 14.089844 18.054688 C 13.929844 18.054688 13.810547 18.185938 13.810547 18.335938 C 13.810547 20.005937 14.720547 21.994141 19.060547 21.994141 C 22.200547 21.994141 24 20.755703 24 18.595703 C 24 16.455703 22.549766 15.884609 19.509766 15.474609 C 16.419766 15.074609 16.109375 14.864531 16.109375 14.144531 C 16.109375 13.544531 16.380156 12.755859 18.660156 12.755859 C 20.690156 12.755859 21.449766 13.194453 21.759766 14.564453 C 21.789766 14.694453 21.899062 14.794922 22.039062 14.794922 L 23.330078 14.794922 C 23.410078 14.794922 23.479063 14.755313 23.539062 14.695312 C 23.589062 14.645313 23.619375 14.564609 23.609375 14.474609 C 23.409375 12.114609 21.840156 11.005859 18.660156 11.005859 z"/>
    </symbol>
    <symbol id='icon-logo-react' viewBox="0 0 50 50">
        <path d="M 34.554688 3.984375 C 33.775003 3.9581582 32.958884 4.0940926 32.140625 4.359375 C 30.504109 4.889941 28.789203 5.9238848 27.029297 7.3554688 C 26.339589 7.9165071 25.643623 8.5578288 24.945312 9.2382812 C 24.262398 8.5751039 23.580733 7.9509974 22.90625 7.4023438 C 21.147758 5.9719089 19.4375 4.9375672 17.804688 4.4082031 C 16.171878 3.8788386 14.547223 3.8624356 13.212891 4.6328125 C 11.878558 5.4031893 11.080619 6.8173558 10.722656 8.4960938 C 10.364693 10.174832 10.404125 12.173992 10.763672 14.412109 C 10.888559 15.189511 11.066671 16.005078 11.269531 16.835938 C 10.507095 17.067004 9.7666767 17.309955 9.0800781 17.578125 C 7.0079817 18.387438 5.2934468 19.355663 4.0449219 20.507812 C 2.7963969 21.659962 1.9902344 23.058304 1.9902344 24.59375 C 1.9902344 26.129196 2.7963969 27.525585 4.0449219 28.677734 C 5.2934468 29.829884 7.0079817 30.800062 9.0800781 31.609375 C 9.8142516 31.896126 10.609118 32.154326 11.429688 32.398438 C 11.134531 33.501278 10.895394 34.571467 10.732422 35.585938 C 10.372587 37.825853 10.334588 39.825265 10.693359 41.507812 C 11.052134 43.19036 11.850478 44.612534 13.191406 45.386719 C 14.532336 46.160905 16.164264 46.141894 17.800781 45.611328 C 19.437297 45.080762 21.15025 44.048772 22.910156 42.617188 C 23.593512 42.061316 24.284757 41.427206 24.976562 40.753906 C 25.671996 41.431263 26.366006 42.068338 27.052734 42.626953 C 28.811227 44.057387 30.523438 45.089776 32.15625 45.619141 C 33.789061 46.148505 35.413715 46.164908 36.748047 45.394531 C 38.082379 44.624154 38.878366 43.209988 39.236328 41.53125 C 39.59429 39.852512 39.554857 37.855304 39.195312 35.617188 C 39.031899 34.599965 38.792614 33.526227 38.496094 32.419922 C 39.343769 32.169866 40.163744 31.904721 40.919922 31.609375 C 42.992018 30.800062 44.706553 29.829884 45.955078 28.677734 C 47.203603 27.525585 48.009766 26.129196 48.009766 24.59375 C 48.009766 23.058304 47.203603 21.659963 45.955078 20.507812 C 44.706553 19.355663 42.992018 18.387438 40.919922 17.578125 C 40.22347 17.306107 39.471688 17.059992 38.697266 16.826172 C 38.901775 15.990221 39.083345 15.168805 39.208984 14.386719 C 39.568819 12.146804 39.606825 10.145439 39.248047 8.4628906 C 38.889279 6.7803434 38.088976 5.3601244 36.748047 4.5859375 C 36.077582 4.1988452 35.334372 4.0105918 34.554688 3.984375 z M 34.462891 6.0195312 C 34.952154 6.03291 35.369535 6.1493386 35.726562 6.3554688 C 36.440618 6.7677287 36.968419 7.5700924 37.25 8.890625 C 37.531581 10.211156 37.521848 11.99533 37.189453 14.064453 C 37.075647 14.772878 36.910402 15.52369 36.722656 16.292969 C 34.677151 15.800695 32.435744 15.435401 30.046875 15.220703 C 28.847638 13.559329 27.615404 12.045781 26.373047 10.703125 C 27.030182 10.061662 27.683063 9.4617259 28.320312 8.9433594 C 29.946026 7.6209332 31.485126 6.7210962 32.769531 6.3046875 C 33.411734 6.0964824 33.973627 6.0061525 34.462891 6.0195312 z M 15.486328 6.0253906 C 15.978419 6.0116533 16.541491 6.1017415 17.185547 6.3105469 C 18.473657 6.7281576 20.015452 7.6275969 21.642578 8.9511719 C 22.267037 9.4591336 22.905298 10.047651 23.548828 10.673828 C 22.297283 12.027473 21.054862 13.55414 19.847656 15.230469 C 17.468889 15.449074 15.236606 15.81635 13.201172 16.310547 C 13.014826 15.545537 12.849558 14.798586 12.736328 14.09375 C 12.403642 12.02283 12.39534 10.238404 12.677734 8.9140625 C 12.960128 7.5897208 13.492238 6.7813032 14.212891 6.3652344 C 14.573216 6.1572002 14.994237 6.0391279 15.486328 6.0253906 z M 24.976562 12.142578 C 25.791172 13.029071 26.605956 13.99916 27.414062 15.042969 C 26.620033 15.009861 25.816288 14.990234 25 14.990234 C 24.167457 14.990234 23.34841 15.010498 22.539062 15.044922 C 23.347352 14.000306 24.16175 13.029737 24.976562 12.142578 z M 25 17.009766 C 26.359894 17.009766 27.685348 17.065647 28.974609 17.160156 C 29.86173 18.434311 30.728648 19.786055 31.554688 21.216797 C 32.280504 22.473948 32.937328 23.729163 33.535156 24.96875 C 32.931017 26.224782 32.263184 27.496972 31.527344 28.771484 C 30.879609 29.893393 30.20319 30.958949 29.515625 31.986328 C 28.059313 32.10805 26.550303 32.175781 25 32.175781 C 23.412375 32.175781 21.869462 32.104031 20.380859 31.976562 C 19.704742 30.963955 19.039735 29.91454 18.402344 28.810547 C 17.668186 27.538949 17.003577 26.269079 16.400391 25.015625 C 17.006106 23.755092 17.673701 22.47818 18.412109 21.199219 C 19.233818 19.775977 20.098207 18.432055 20.980469 17.164062 C 22.283609 17.067424 23.62445 17.009766 25 17.009766 z M 31.548828 17.410156 C 33.197299 17.615841 34.745083 17.901405 36.185547 18.244141 C 35.758129 19.645287 35.231654 21.108808 34.59375 22.619141 C 34.179567 21.820719 33.750599 21.019585 33.287109 20.216797 C 32.725422 19.243926 32.140408 18.316416 31.548828 17.410156 z M 18.34375 17.425781 C 17.764654 18.315097 17.194836 19.224578 16.644531 20.177734 C 16.175094 20.990823 15.737221 21.802736 15.318359 22.611328 C 14.68596 21.110075 14.162654 19.654877 13.738281 18.261719 C 15.168002 17.918363 16.706766 17.633813 18.34375 17.425781 z M 38.164062 18.775391 C 38.872944 18.989877 39.557566 19.21371 40.185547 19.458984 C 42.0957 20.205046 43.60665 21.088493 44.585938 21.992188 C 45.565224 22.895882 45.990234 23.757696 45.990234 24.59375 C 45.990234 25.429804 45.565225 26.291619 44.585938 27.195312 C 43.60665 28.099007 42.0957 28.982454 40.185547 29.728516 C 39.487698 30.001079 38.72096 30.248243 37.923828 30.482422 C 37.355199 28.723643 36.629408 26.888772 35.765625 25.015625 C 36.758785 22.865083 37.561088 20.768289 38.164062 18.775391 z M 11.802734 18.785156 C 12.398803 20.758169 13.190811 22.834118 14.169922 24.962891 C 13.30047 26.846955 12.571087 28.692254 12 30.460938 C 11.23096 30.232919 10.490212 29.992451 9.8144531 29.728516 C 7.9042995 28.982454 6.39335 28.099007 5.4140625 27.195312 C 4.434775 26.291618 4.0097656 25.429804 4.0097656 24.59375 C 4.0097656 23.757696 4.434775 22.895882 5.4140625 21.992188 C 6.39335 21.088493 7.9042995 20.205046 9.8144531 19.458984 C 10.432774 19.217483 11.105915 18.996837 11.802734 18.785156 z M 25 20 C 22.250421 20 20 22.250421 20 25 C 20 27.749579 22.250421 30 25 30 C 27.749579 30 30 27.749579 30 25 C 30 22.250421 27.749579 20 25 20 z M 15.341797 27.365234 C 15.762496 28.177853 16.200028 28.993283 16.671875 29.810547 C 17.041048 30.449973 17.418073 31.072393 17.800781 31.683594 C 16.457817 31.497372 15.181231 31.261605 13.982422 30.982422 C 14.363652 29.81481 14.819744 28.602796 15.341797 27.365234 z M 34.619141 27.365234 C 35.143284 28.605725 35.599609 29.819681 35.982422 30.990234 C 34.779808 31.269089 33.499292 31.504052 32.152344 31.689453 C 32.540071 31.070779 32.922982 30.44057 33.296875 29.792969 C 33.765252 28.981717 34.201083 28.171917 34.619141 27.365234 z M 13.40625 32.923828 C 15.216074 33.352568 17.177716 33.681912 19.257812 33.896484 C 20.64638 35.904859 22.092967 37.709497 23.548828 39.287109 C 22.897813 39.921859 22.252566 40.517583 21.621094 41.03125 C 19.99538 42.353677 18.454326 43.251559 17.169922 43.667969 C 15.885516 44.084378 14.926946 44.029446 14.212891 43.617188 C 13.498835 43.204927 12.972987 42.402563 12.691406 41.082031 C 12.409825 39.761499 12.417606 37.979279 12.75 35.910156 C 12.900793 34.971492 13.12615 33.966374 13.40625 32.923828 z M 36.560547 32.931641 C 36.842987 33.980548 37.069013 34.98935 37.220703 35.933594 C 37.553389 38.004513 37.56169 39.788939 37.279297 41.113281 C 36.996903 42.437623 36.468699 43.247993 35.748047 43.664062 C 35.027395 44.080132 34.059594 44.13441 32.771484 43.716797 C 31.483374 43.299186 29.941578 42.399747 28.314453 41.076172 C 27.678439 40.558811 27.028726 39.958258 26.373047 39.318359 C 27.838664 37.73459 29.295467 35.920758 30.693359 33.900391 C 32.778701 33.687251 34.745791 33.359875 36.560547 32.931641 z M 21.867188 34.101562 C 22.893951 34.157518 23.934244 34.195312 25 34.195312 C 26.030504 34.195312 27.037063 34.159787 28.03125 34.107422 C 27.014961 35.478593 25.979034 36.725149 24.947266 37.847656 C 23.916125 36.722751 22.882144 35.473968 21.867188 34.101562 z" clip-rule="evenodd" fill-rule="evenodd"/>
    </symbol>
    <symbol id='icon-logo-typescript' viewBox="0 0 50 50">
        <path d="M 5 4 A 1.0001 1.0001 0 0 0 4 5 L 4 45 A 1.0001 1.0001 0 0 0 5 46 L 45 46 A 1.0001 1.0001 0 0 0 46 45 L 46 5 A 1.0001 1.0001 0 0 0 45 4 L 5 4 z M 6 6 L 44 6 L 44 44 L 6 44 L 6 6 z M 15 23 L 15 26.445312 L 20 26.445312 L 20 42 L 24 42 L 24 26.445312 L 29 26.445312 L 29 23 L 15 23 z M 36.691406 23.009766 C 33.576782 22.997369 30.017578 23.941219 30.017578 28.324219 C 30.017578 34.054219 37.738281 34.055625 37.738281 36.640625 C 37.738281 36.885625 37.842187 38.666016 35.117188 38.666016 C 32.392187 38.666016 30.121094 36.953125 30.121094 36.953125 L 30.121094 41.111328 C 30.121094 41.111328 42.001953 44.954062 42.001953 36.289062 C 42.000953 30.664063 34.208984 30.945391 34.208984 28.150391 C 34.208984 27.067391 34.978375 26.054687 37.109375 26.054688 C 39.240375 26.054688 41.126953 27.3125 41.126953 27.3125 L 41.267578 23.607422 C 41.267578 23.607422 39.113892 23.019408 36.691406 23.009766 z"/>
    </symbol>
    <symbol id='icon-logo-sass' viewBox="0 0 50 50">
        <path d="M43.03,27.802c-1.747,0.009-3.261,0.429-4.53,1.054c-0.464-0.926-0.934-1.741-1.013-2.347 c-0.092-0.707-0.199-1.129-0.088-1.972c0.111-0.843,0.599-2.036,0.591-2.125c-0.007-0.089-0.109-0.518-1.117-0.526 c-1.008-0.007-1.87,0.194-1.972,0.46c-0.102,0.266-0.296,0.865-0.416,1.49c-0.177,0.914-2.012,4.174-3.055,5.879 c-0.341-0.666-0.631-1.252-0.691-1.716c-0.092-0.707-0.199-1.129-0.088-1.972c0.111-0.843,0.599-2.036,0.591-2.125 c-0.007-0.089-0.109-0.518-1.117-0.526c-1.008-0.007-1.87,0.194-1.972,0.46c-0.102,0.266-0.21,0.888-0.416,1.49 c-0.207,0.602-2.647,6.039-3.286,7.448c-0.326,0.718-0.609,1.295-0.809,1.689c-0.001-0.001-0.001-0.002-0.001-0.002 s-0.012,0.026-0.034,0.071c-0.171,0.335-0.273,0.521-0.273,0.521s0.001,0.003,0.003,0.007c-0.136,0.246-0.281,0.475-0.353,0.475 c-0.05,0-0.151-0.656,0.022-1.555c0.363-1.886,1.235-4.828,1.227-4.929c-0.004-0.052,0.162-0.564-0.57-0.833 c-0.711-0.26-0.965,0.174-1.03,0.175c-0.063,0.001-0.11,0.153-0.11,0.153s0.793-3.308-1.512-3.308c-1.44,0-3.436,1.576-4.42,3.004 c-0.62,0.338-1.948,1.063-3.357,1.837c-0.541,0.297-1.093,0.601-1.617,0.89c-0.036-0.039-0.071-0.079-0.108-0.118 c-2.794-2.981-7.958-5.089-7.739-9.096c0.08-1.457,0.586-5.293,9.924-9.946c7.649-3.812,13.773-2.763,14.831-0.438 c1.512,3.321-3.273,9.494-11.216,10.384c-3.027,0.339-4.62-0.834-5.017-1.271c-0.417-0.46-0.479-0.481-0.635-0.394 c-0.254,0.141-0.093,0.547,0,0.789c0.237,0.617,1.21,1.712,2.87,2.256c1.46,0.479,5.013,0.742,9.311-0.92 c4.813-1.862,8.571-7.041,7.468-11.37c-1.123-4.403-8.423-5.85-15.332-3.396c-4.112,1.461-8.563,3.754-11.764,6.747 c-3.806,3.56-4.412,6.658-4.162,7.952c0.889,4.6,7.228,7.595,9.767,9.815c-0.125,0.069-0.243,0.134-0.35,0.193 c-1.273,0.63-6.105,3.159-7.314,5.831c-1.371,3.031,0.218,5.206,1.271,5.499c3.26,0.907,6.606-0.725,8.404-3.407 c1.798-2.681,1.578-6.172,0.753-7.766c-0.01-0.02-0.022-0.039-0.032-0.059c0.329-0.195,0.664-0.392,0.996-0.587 c0.648-0.38,1.284-0.735,1.836-1.036c-0.309,0.846-0.535,1.86-0.653,3.325c-0.138,1.721,0.567,3.945,1.49,4.82 c0.406,0.385,0.895,0.394,1.205,0.394c1.074,0,1.564-0.893,2.103-1.95c0.662-1.296,1.249-2.804,1.249-2.804 s-0.737,4.075,1.271,4.075c0.731,0,1.467-0.949,1.795-1.432c0.001,0.005,0.001,0.008,0.001,0.008s0.019-0.031,0.056-0.095 c0.076-0.116,0.119-0.19,0.119-0.19s0.002-0.008,0.004-0.021c0.294-0.51,0.946-1.674,1.924-3.594 c1.263-2.48,2.475-5.586,2.475-5.586s0.113,0.76,0.482,2.015c0.217,0.739,0.679,1.556,1.043,2.339 c-0.293,0.407-0.473,0.64-0.473,0.64s0.002,0.004,0.005,0.012c-0.234,0.311-0.497,0.646-0.772,0.974 c-0.997,1.188-2.185,2.544-2.344,2.936c-0.187,0.461-0.143,0.801,0.219,1.073c0.264,0.199,0.735,0.23,1.227,0.197 c0.896-0.06,1.527-0.283,1.838-0.418c0.485-0.171,1.05-0.441,1.58-0.831c0.978-0.719,1.568-1.748,1.512-3.111 c-0.031-0.751-0.271-1.495-0.574-2.198c0.089-0.128,0.178-0.256,0.267-0.387c1.542-2.255,2.738-4.732,2.738-4.732 s0.113,0.76,0.482,2.015c0.187,0.636,0.556,1.329,0.887,2.009c-1.45,1.178-2.349,2.547-2.662,3.445 c-0.577,1.661-0.125,2.414,0.723,2.585c0.384,0.078,0.927-0.098,1.335-0.271c0.508-0.168,1.118-0.449,1.688-0.868 c0.978-0.719,1.919-1.726,1.862-3.089c-0.026-0.62-0.194-1.236-0.422-1.828c1.229-0.512,2.821-0.797,4.848-0.56 c4.349,0.508,5.202,3.223,5.039,4.359c-0.163,1.137-1.075,1.761-1.38,1.95c-0.305,0.189-0.398,0.254-0.372,0.394 c0.037,0.204,0.178,0.196,0.438,0.152c0.358-0.06,2.283-0.924,2.366-3.022C50.102,30.703,47.55,27.778,43.03,27.802z M9.512,39.102 c-1.44,1.571-3.453,2.165-4.316,1.665c-0.932-0.54-0.563-2.854,1.205-4.521c1.077-1.016,2.468-1.952,3.391-2.529 c0.21-0.126,0.518-0.312,0.893-0.537c0.062-0.035,0.097-0.055,0.097-0.055l-0.001-0.002c0.072-0.043,0.147-0.088,0.223-0.134 C11.647,35.363,11.024,37.453,9.512,39.102z M20.005,31.968c-0.502,1.223-1.552,4.352-2.191,4.184 c-0.549-0.144-0.883-2.523-0.11-4.863c0.389-1.178,1.22-2.586,1.709-3.133c0.786-0.879,1.652-1.167,1.862-0.81 C21.544,27.8,20.32,31.201,20.005,31.968z M28.675,36.105c-0.213,0.111-0.408,0.181-0.498,0.127 c-0.067-0.04,0.088-0.186,0.088-0.186s1.084-1.167,1.512-1.698c0.248-0.309,0.537-0.676,0.85-1.086 c0.003,0.041,0.004,0.082,0.004,0.122C30.627,34.782,29.277,35.725,28.675,36.105z M35.354,34.582 c-0.159-0.113-0.132-0.478,0.389-1.614c0.205-0.446,0.672-1.198,1.485-1.916c0.094,0.295,0.152,0.578,0.15,0.842 C37.367,33.653,36.112,34.31,35.354,34.582z"/>
    </symbol>
    <symbol id='icon-logo-html' viewBox="0 0 50 50">
        <path d="M 5.28125 2 C 4.765625 2.09375 4.410156 2.574219 4.46875 3.09375 L 8 42.53125 C 8.046875 42.933594 8.332031 43.265625 8.71875 43.375 L 24.71875 47.96875 C 24.902344 48.023438 25.097656 48.023438 25.28125 47.96875 L 41.28125 43.375 C 41.667969 43.265625 41.953125 42.933594 42 42.53125 L 45.53125 3.09375 C 45.558594 2.8125 45.464844 2.535156 45.273438 2.324219 C 45.082031 2.117188 44.8125 2 44.53125 2 L 5.46875 2 C 5.4375 2 5.40625 2 5.375 2 C 5.34375 2 5.3125 2 5.28125 2 Z M 6.5625 4 L 43.4375 4 L 40.09375 41.65625 L 25 45.9375 L 9.90625 41.65625 Z M 12.53125 10.0625 C 12.015625 10.15625 11.660156 10.636719 11.71875 11.15625 L 13.0625 25.9375 C 13.09375 26.453125 13.515625 26.859375 14.03125 26.875 L 30 26.875 L 29.5625 31.46875 L 25.03125 32.4375 L 20.4375 31.46875 L 20.28125 29.84375 C 20.25 29.316406 19.808594 28.90625 19.28125 28.90625 L 14.40625 28.90625 C 14.125 28.90625 13.855469 29.023438 13.664063 29.230469 C 13.472656 29.441406 13.378906 29.71875 13.40625 30 L 13.96875 36.125 C 14 36.527344 14.269531 36.875 14.65625 37 L 24.59375 40.03125 L 24.71875 40.0625 C 24.902344 40.117188 25.097656 40.117188 25.28125 40.0625 L 35.34375 37 C 35.742188 36.886719 36.027344 36.539063 36.0625 36.125 L 37.375 21.09375 C 37.402344 20.816406 37.3125 20.542969 37.128906 20.335938 C 36.945313 20.128906 36.683594 20.007813 36.40625 20 L 19.375 20 L 19.125 16.90625 L 36.84375 16.90625 C 37.363281 16.910156 37.796875 16.515625 37.84375 16 L 38.28125 11.15625 C 38.308594 10.875 38.214844 10.597656 38.023438 10.386719 C 37.832031 10.179688 37.5625 10.0625 37.28125 10.0625 L 12.71875 10.0625 C 12.65625 10.054688 12.59375 10.054688 12.53125 10.0625 Z M 13.8125 12.0625 L 36.1875 12.0625 L 35.9375 14.90625 L 18.03125 14.90625 C 17.75 14.90625 17.480469 15.023438 17.289063 15.230469 C 17.097656 15.441406 17.003906 15.71875 17.03125 16 L 17.5 21.09375 C 17.546875 21.597656 17.964844 21.988281 18.46875 22 L 35.3125 22 L 34.125 35.28125 L 25 38.03125 L 15.875 35.28125 L 15.5 30.90625 L 18.375 30.90625 L 18.5 32.375 C 18.53125 32.816406 18.847656 33.183594 19.28125 33.28125 L 24.84375 34.4375 C 24.976563 34.464844 25.117188 34.464844 25.25 34.4375 L 30.71875 33.28125 C 31.152344 33.183594 31.46875 32.816406 31.5 32.375 L 32.09375 25.9375 C 32.109375 25.660156 32.011719 25.390625 31.824219 25.191406 C 31.632813 24.988281 31.371094 24.875 31.09375 24.875 L 14.9375 24.875 Z"/>
    </symbol>


    <symbol id='icon-logo-github' viewBox="0 0 50 50">
        <path d="M17.791,46.836C18.502,46.53,19,45.823,19,45v-5.4c0-0.197,0.016-0.402,0.041-0.61C19.027,38.994,19.014,38.997,19,39 c0,0-3,0-3.6,0c-1.5,0-2.8-0.6-3.4-1.8c-0.7-1.3-1-3.5-2.8-4.7C8.9,32.3,9.1,32,9.7,32c0.6,0.1,1.9,0.9,2.7,2c0.9,1.1,1.8,2,3.4,2 c2.487,0,3.82-0.125,4.622-0.555C21.356,34.056,22.649,33,24,33v-0.025c-5.668-0.182-9.289-2.066-10.975-4.975 c-3.665,0.042-6.856,0.405-8.677,0.707c-0.058-0.327-0.108-0.656-0.151-0.987c1.797-0.296,4.843-0.647,8.345-0.714 c-0.112-0.276-0.209-0.559-0.291-0.849c-3.511-0.178-6.541-0.039-8.187,0.097c-0.02-0.332-0.047-0.663-0.051-0.999 c1.649-0.135,4.597-0.27,8.018-0.111c-0.079-0.5-0.13-1.011-0.13-1.543c0-1.7,0.6-3.5,1.7-5c-0.5-1.7-1.2-5.3,0.2-6.6 c2.7,0,4.6,1.3,5.5,2.1C21,13.4,22.9,13,25,13s4,0.4,5.6,1.1c0.9-0.8,2.8-2.1,5.5-2.1c1.5,1.4,0.7,5,0.2,6.6c1.1,1.5,1.7,3.2,1.6,5 c0,0.484-0.045,0.951-0.11,1.409c3.499-0.172,6.527-0.034,8.204,0.102c-0.002,0.337-0.033,0.666-0.051,0.999 c-1.671-0.138-4.775-0.28-8.359-0.089c-0.089,0.336-0.197,0.663-0.325,0.98c3.546,0.046,6.665,0.389,8.548,0.689 c-0.043,0.332-0.093,0.661-0.151,0.987c-1.912-0.306-5.171-0.664-8.879-0.682C35.112,30.873,31.557,32.75,26,32.969V33 c2.6,0,5,3.9,5,6.6V45c0,0.823,0.498,1.53,1.209,1.836C41.37,43.804,48,35.164,48,25C48,12.318,37.683,2,25,2S2,12.318,2,25 C2,35.164,8.63,43.804,17.791,46.836z"/>
    </symbol>
    <symbol id='icon-logo-linkedin' viewBox="0 0 50 50">
        <path d="M 25 2 C 12.309295 2 2 12.309295 2 25 C 2 37.690705 12.309295 48 25 48 C 37.690705 48 48 37.690705 48 25 C 48 12.309295 37.690705 2 25 2 z M 25 4 C 36.609824 4 46 13.390176 46 25 C 46 36.609824 36.609824 46 25 46 C 13.390176 46 4 36.609824 4 25 C 4 13.390176 13.390176 4 25 4 z M 16 12 C 14.35499 12 13 13.35499 13 15 C 13 16.64501 14.35499 18 16 18 C 17.64501 18 19 16.64501 19 15 C 19 13.35499 17.64501 12 16 12 z M 16 14 C 16.564129 14 17 14.435871 17 15 C 17 15.564129 16.564129 16 16 16 C 15.435871 16 15 15.564129 15 15 C 15 14.435871 15.435871 14 16 14 z M 14 19 A 1.0001 1.0001 0 0 0 13 20 L 13 35 A 1.0001 1.0001 0 0 0 14 36 L 18 36 A 1.0001 1.0001 0 0 0 19 35 L 19 20 A 1.0001 1.0001 0 0 0 18 19 L 14 19 z M 22 19 A 1.0001 1.0001 0 0 0 21 20 L 21 35 A 1.0001 1.0001 0 0 0 22 36 L 26 36 A 1.0001 1.0001 0 0 0 27 35 L 27 27.5 C 27 26.120455 28.120455 25 29.5 25 C 30.879545 25 32 26.120455 32 27.5 L 32 30 L 32 35 A 1.0001 1.0001 0 0 0 33 36 L 37 36 A 1.0001 1.0001 0 0 0 38 35 L 38 26.5 C 38 22.36961 34.63039 19 30.5 19 C 29.213528 19 28.059744 19.41615 27 19.990234 A 1.0001 1.0001 0 0 0 26 19 L 22 19 z M 15 21 L 17 21 L 17 34 L 15 34 L 15 21 z M 23 21 L 25 21 L 25 21.816406 A 1.0001 1.0001 0 0 0 26.693359 22.537109 C 27.684186 21.585305 29.016683 21 30.5 21 C 33.54961 21 36 23.45039 36 26.5 L 36 34 L 34 34 L 34 30 L 34 27.5 C 34 25.029545 31.970455 23 29.5 23 C 27.029545 23 25 25.029545 25 27.5 L 25 34 L 23 34 L 23 21 z"/>
    </symbol>
    <symbol id='icon-logo-facebook' viewBox="0 0 50 50" >
        <path d="M 25 3 C 12.861562 3 3 12.861562 3 25 C 3 36.019135 11.127533 45.138355 21.712891 46.728516 L 22.861328 46.902344 L 22.861328 29.566406 L 17.664062 29.566406 L 17.664062 26.046875 L 22.861328 26.046875 L 22.861328 21.373047 C 22.861328 18.494965 23.551973 16.599417 24.695312 15.410156 C 25.838652 14.220896 27.528004 13.621094 29.878906 13.621094 C 31.758714 13.621094 32.490022 13.734993 33.185547 13.820312 L 33.185547 16.701172 L 30.738281 16.701172 C 29.349697 16.701172 28.210449 17.475903 27.619141 18.507812 C 27.027832 19.539724 26.84375 20.771816 26.84375 22.027344 L 26.84375 26.044922 L 32.966797 26.044922 L 32.421875 29.564453 L 26.84375 29.564453 L 26.84375 46.929688 L 27.978516 46.775391 C 38.71434 45.319366 47 36.126845 47 25 C 47 12.861562 37.138438 3 25 3 z M 25 5 C 36.057562 5 45 13.942438 45 25 C 45 34.729791 38.035799 42.731796 28.84375 44.533203 L 28.84375 31.564453 L 34.136719 31.564453 L 35.298828 24.044922 L 28.84375 24.044922 L 28.84375 22.027344 C 28.84375 20.989871 29.033574 20.060293 29.353516 19.501953 C 29.673457 18.943614 29.981865 18.701172 30.738281 18.701172 L 35.185547 18.701172 L 35.185547 12.009766 L 34.318359 11.892578 C 33.718567 11.811418 32.349197 11.621094 29.878906 11.621094 C 27.175808 11.621094 24.855567 12.357448 23.253906 14.023438 C 21.652246 15.689426 20.861328 18.170128 20.861328 21.373047 L 20.861328 24.046875 L 15.664062 24.046875 L 15.664062 31.566406 L 20.861328 31.566406 L 20.861328 44.470703 C 11.816995 42.554813 5 34.624447 5 25 C 5 13.942438 13.942438 5 25 5 z"/>
    </symbol>
</svg>